<?xml version="1.0" encoding="UTF-8" standalone="no"?>
<svg
   version="1.0"
   width="1024.000000pt"
   height="1024.000000pt"
   viewBox="0 0 1024.000000 1024.000000"
   preserveAspectRatio="xMidYMid meet"
   id="svg68"
   sodipodi:docname="logo.svg"
   inkscape:version="1.4 (e7c3feb1, 2024-10-09)"
   xmlns:inkscape="http://www.inkscape.org/namespaces/inkscape"
   xmlns:sodipodi="http://sodipodi.sourceforge.net/DTD/sodipodi-0.dtd"
   xmlns="http://www.w3.org/2000/svg"
   xmlns:svg="http://www.w3.org/2000/svg">
  <defs
     id="defs68" />
  <sodipodi:namedview
     id="namedview68"
     pagecolor="#ffffff"
     bordercolor="#000000"
     borderopacity="0.25"
     inkscape:showpageshadow="2"
     inkscape:pageopacity="0.0"
     inkscape:pagecheckerboard="0"
     inkscape:deskcolor="#d1d1d1"
     inkscape:document-units="pt"
     inkscape:zoom="0.31771037"
     inkscape:cx="552.38989"
     inkscape:cy="517.76716"
     inkscape:window-width="1440"
     inkscape:window-height="758"
     inkscape:window-x="0"
     inkscape:window-y="31"
     inkscape:window-maximized="1"
     inkscape:current-layer="g68" />
  <g
     transform="translate(0.000000,1024.000000) scale(0.100000,-0.100000)"
     fill="#3C4F6C"
     stroke="none"
     id="g68">
    <path
       d="M4855 8850 c-923 -78 -1780 -602 -2284 -1397 -218 -344 -348 -714 -413 -1178 -20 -144 -21 -197 -25 -1273 l-4 -1123 146 3 145 3 3 1120 c3 991 5 1134 20 1244 61 441 194 788 436 1144 209 307 540 617 859 807 312 184 681 312 1020 355 161 20 487 20 656 0 717 -84 1384 -451 1827 -1007 330 -413 524 -893 569 -1408 6 -68 10 -555 10 -1187 l0 -1073 135 0 135 0 0 1127 c0 1221 -1 1260 -56 1530 -155 767 -618 1427 -1299 1852 -129 80 -410 219 -548 271 -231 86 -454 143 -692 175 -140 19 -496 27 -640 15z"
       id="path1" />
    <path
       d="M4955 7067 c-175 -135 -280 -216 -771 -598 -447 -347 -618 -480 -627 -488 -4 -4 -7 -477 -7 -1052 l0 -1044 222 -6 c449 -13 790 -82 1178 -241 118 -48 316 -151 427 -223 l103 -65 148 74 c314 157 597 251 930 307 l132 23 0 1114 c0 942 -2 1117 -14 1126 -8 6 -76 59 -152 118 -77 58 -195 150 -264 204 -69 54 -309 239 -535 413 -225 173 -451 348 -502 388 -50 40 -95 73 -100 73 -4 0 -80 -56 -168 -123z m506 -501 c134 -104 276 -214 315 -245 40 -31 196 -152 348 -270 l276 -214 0 -922 0 -922 -87 -18 c-217 -44 -489 -139 -699 -242 l-122 -59 -78 48 c-386 239 -955 409 -1456 435 l-118 6 0 836 0 836 118 91 c355 274 772 598 956 741 l208 162 48 -37 c26 -20 157 -122 291 -226z"
       id="path2" />
    <path
       d="M4972 5343 l3 -348 142 -3 142 -3 3 351 3 350 -148 0 -147 0 2 -347z"
       id="path3" />
    <path
       d="m 2740,4115 v -215 h 250 250 v 215 215 h -250 -250 z"
       id="path4"
       sodipodi:nodetypes="ccccccccc"
       style="fill:#8d9675;fill-opacity:1" />
    <path
       d="m 3581.5322,3084.5126 v -445.1334 h 434.0708 434.0709 v 445.1334 445.1334 H 4015.603 3581.5322 Z"
       id="path4-8"
       sodipodi:nodetypes="ccccccccc"
       style="fill:#8d9675;fill-opacity:1;stroke-width:1.89599" />
    <path
       d="m 2142.0283,2931.8936 v -588.4393 h 544.0644 544.0644 v 588.4393 588.4394 h -544.0644 -544.0644 z"
       id="path4-9"
       sodipodi:nodetypes="ccccccccc"
       style="fill:#8d9675;fill-opacity:1;stroke-width:2.44055" />
    <path
       d="M3290 2083 c-120 -12 -271 -41 -455 -88 -302 -76 -327 -80 -528 -80 l-177 0 0 -132 c0 -94 4 -134 12 -139 7 -5 92 -10 188 -12 202 -5 306 8 520 65 327 86 483 108 705 100 219 -8 348 -36 649 -142 295 -103 478 -142 721 -152 290 -12 525 30 897 160 295 104 466 134 689 124 160 -8 294 -35 456 -93 279 -99 327 -115 421 -134 61 -14 154 -23 252 -27 158 -6 236 1 378 34 l72 17 0 146 0 146 -92 -23 c-70 -18 -134 -25 -254 -30 -213 -8 -318 11 -634 117 -301 101 -450 130 -663 130 -209 0 -378 -33 -702 -140 -341 -111 -561 -148 -824 -137 -240 10 -354 35 -707 152 -246 82 -402 118 -574 134 -109 10 -272 12 -350 4z"
       id="path68" />
    <path
       d="M 6996.6491,4049.9484 V 3772.095 h 261.2238 261.2239 v 277.8534 277.8535 h -261.2239 -261.2238 z"
       id="path4-7"
       sodipodi:nodetypes="ccccccccc"
       style="fill:#8d9675;fill-opacity:1;stroke-width:1.16205" />
    <path
       style="fill:#8d9675;fill-opacity:1;stroke-width:7.5"
       d="m 4300.9723,2271.0797 c 1085.7804,821.9228 2247.0023,1464.4172 3771.2072,1243.6005 L 8067.69,2199.247 c -636.6449,-223.3103 -897.4403,183.6576 -1530.9819,181.5699 -727.604,-2.3976 -1324.5632,-487.0547 -2235.7358,-109.7372 z"
       id="path69"
       sodipodi:nodetypes="cccsc" />
  </g>
</svg>
